<svg xmlns="http://www.w3.org/2000/svg" viewBox="0 0 512 512" width="512" height="512">
  <rect x="0" y="0" width="512" height="512" rx="96" ry="96" fill="#1a73e8"/>
  <path
    d="M64 320
       C 128 256, 192 256, 256 320
       C 320 384, 384 384, 448 320
       L 448 400
       C 384 464, 320 464, 256 400
       C 192 336, 128 336, 64 400
       Z"
    fill="#ffffff"/>
  <path
    d="M96 224
       C 160 176, 224 176, 288 224
       C 352 272, 416 272, 448 240
       L 448 288
       C 416 320, 352 320, 288 272
       C 224 224, 160 224, 96 272
       Z"
    fill="#ffffff"
    opacity="0.65"/>
</svg>
